<?xml version="1.0" encoding="UTF-8"?>
<!DOCTYPE svg PUBLIC "-//W3C//DTD SVG 1.1//EN" "http://www.w3.org/Graphics/SVG/1.1/DTD/svg11.dtd">
<!-- Creator: CorelDRAW 2020 (64 Bit) -->
<svg xmlns="http://www.w3.org/2000/svg" xml:space="preserve" width="38.1mm" height="38.1mm" version="1.1" style="shape-rendering:geometricPrecision; text-rendering:geometricPrecision; image-rendering:optimizeQuality; fill-rule:evenodd; clip-rule:evenodd"
viewBox="0 0 160.58 160.58"
 xmlns:xlink="http://www.w3.org/1999/xlink"
 xmlns:xodm="http://www.corel.com/coreldraw/odm/2003">
 <defs>
  <style type="text/css">
   <![CDATA[
    .fil2 {fill:#72A1FB}
    .fil1 {fill:#DB380E}
    .fil0 {fill:white}
   ]]>
  </style>
 </defs>
 <g id="Camada_x0020_1">
  <metadata id="CorelCorpID_0Corel-Layer"/>
  <circle class="fil0" cx="80.29" cy="80.29" r="80.29"/>
  <g id="_2247268178080">
   <path class="fil1" d="M90.05 18.93l0.22 4.9c0,3.27 -2.08,8.79 -4.35,10.56 -1.75,1.36 -2.07,2.06 -5.17,4.17 -2.46,1.67 -4.69,3.37 -7.04,5.2 -0.72,0.56 -0.89,0.83 -1.53,1.37 -2.2,1.85 -4.14,4.12 -5.63,6.61 -2.3,3.84 -3.28,7.42 -1.74,12.01 1.34,4.01 3.02,6.51 5.62,9.74 0.5,0.62 1,0.96 1.53,1.59 1.12,1.34 1.63,1.93 2.99,3.02 0.54,0.43 1.93,1.89 2.57,2.11 1.23,0.44 0.24,-0.08 1.18,-0.08 0.38,-1.65 -0.44,-2.27 -1.5,-4.73 -2.07,-4.84 -4.29,-10.94 -4.29,-16.63 0,-3.41 5.4,-7.33 7.52,-9.17 3.61,-3.16 5.22,-4.07 8.9,-7.79l3.54 -4.7c1.13,-2.07 1.87,-3.87 2.08,-6.37 0.31,-3.67 -0.37,-6.97 -1.94,-10.09 -0.78,-1.55 -1.2,-2.21 -1.57,-2.37l-0.41 0c-0.26,0.1 -0.56,0.37 -0.99,0.67z"/>
   <path class="fil2" d="M37.98 118.84c0,6.97 17,6.82 21.3,7.4 6.14,0.84 21.44,0.24 27.65,-0.06 5.75,-0.28 25.54,-2.95 28.97,-7.08 3.41,-4.1 -2.55,-6.69 -2.27,-4.94l0.26 1.77c-3.26,2.17 -17.08,4.23 -22.97,4.67l-10.54 0.59c-2.64,0.4 -17.08,-0.18 -20.7,-0.7 -3.81,-0.55 -6.77,-0.73 -10.36,-1.65 -2.04,-0.52 -2.42,-0.43 -2.67,-1.34 1.56,-0.36 3.2,-1.48 7.7,-2.31 0.93,-0.17 2.09,-0.27 2.09,-1.25 0,-1.72 -3.28,-0.79 -4.69,-0.68 -2.15,0.16 -4.03,0.28 -5.83,0.62 -3.12,0.6 -7.95,1.5 -7.95,4.96z"/>
   <path class="fil2" d="M66.91 92.58c9.29,0 14.89,0.22 24.04,-2 2.26,-0.55 12.46,-3.57 12.46,-6.01 0,-1.66 -2.67,-0.44 -5.72,0.06 -4.29,0.71 -7.01,0.91 -11.2,1.26 -1.01,0.08 -2.03,-0.07 -3.04,0.07 -1.73,0.24 -3.97,0.15 -5.85,0.15 -1.72,0 -2.91,0.33 -6.01,0.24 -1.16,-0.03 -1.52,-0.24 -2.88,-0.23l-8.87 -0.48c-0.8,-0.1 -1.83,-0.39 -2.71,-0.41 0.21,-0.79 0.35,-0.74 2.09,-1.47 3.09,-1.29 7.92,-1.73 7.92,-2.99 0,-0.54 -0.36,-0.65 -0.67,-1.11l-6.2 0.25c-2.98,0.33 -8.29,1 -10.79,2.34 -4.43,2.36 -3.55,6.98 5.55,9.07 3.45,0.79 7.78,1.25 11.88,1.25z"/>
   <path class="fil1" d="M85.82 76.56c0,5.67 -3.01,6.59 -0.89,8.01 2.26,-0.53 8.23,-6.57 8.23,-12.02 0,-9.93 -12.69,-10.4 0.94,-22.42l4.14 -3.65c0.74,-0.6 1.34,-1.06 2.1,-1.68 0.6,-0.48 1.93,-1.2 1.93,-2.07 0,-2.22 -4.42,0.54 -6.58,1.43 -1.93,0.8 -3.45,1.9 -5.21,2.8l-4.8 3.21c-1.46,1.14 -3.02,2.52 -4.1,3.91 -2.94,3.79 -3.31,7.5 -1.59,12.27 2.19,6.05 5.82,7.46 5.82,10.21z"/>
   <path class="fil2" d="M58.23 109.05c0,6.37 15.22,6.9 20.03,6.9 3.85,0 8.03,-0.46 11.3,-1.17 1.64,-0.35 3.33,-0.77 4.92,-1.31 0.71,-0.24 1.55,-0.47 2.32,-0.79 1.12,-0.46 1.2,-0.44 1.71,-1.4 -0.57,-1.08 -1.5,-1.41 -3.16,-2.41 -4.26,-2.56 -2.71,-2.25 -6.63,-1.6l-6.54 1.02c-4.61,0.7 -12.64,-0.22 -17.05,-1.25 0.45,-0.67 1.16,-1.61 -0.15,-2.04 -0.83,-0.27 -6.75,0.34 -6.75,4.05z"/>
   <path class="fil2" d="M54.89 97.26c0,3.29 5.65,4.75 8.66,5.36 5.72,1.15 5.37,0.6 9.46,1 0.67,0.07 2.11,-0.14 3.24,-0.13 4.8,0.03 13.71,-1.52 18.64,-2.5 2.16,-0.43 4.4,-0.57 5.4,-1.72 -0.32,-1.37 -1.49,-1.68 -2.48,-2.41 -4.12,-3.06 -2.59,-1.99 -7.34,-1.17 -8.71,1.5 -11.05,1.59 -20,1.59 -2.83,0 -7.58,-0.4 -9.35,-1.34 0.39,-0.58 0.36,-0.51 0.91,-0.87 2.08,-1.38 0.74,-3.2 -4.31,-0.75 -0.98,0.47 -2.83,1.69 -2.83,2.96z"/>
   <path class="fil2" d="M54.22 128.41c0,1.31 3.89,1.58 5.69,1.88 2.22,0.37 4.41,0.74 6.59,0.98 12.24,1.34 40.81,2.16 50.79,-4.77 4.66,-3.24 5.7,-8.86 1.88,-5.91 -2.16,1.67 -5.22,3.1 -7.79,4.01 -4.92,1.75 -10.78,2.65 -15.99,2.92l-11.58 0.21c-1.1,0.03 -1.11,0.2 -2.21,0.24 -3.67,0.11 -6.61,-0.25 -9.35,-0.23 -2.88,0.01 -6.8,0.22 -9.56,-0.01 -1.44,-0.12 -2.7,-0.21 -4.46,-0.21 -1.33,0 -4.01,-0.48 -4.01,0.89z"/>
   <path class="fil2" d="M104.74 81.23c0,1.59 2.54,0.58 6.43,2.02 1.92,0.71 4.03,2.19 4.03,4.43 0,1.53 -1.32,3.32 -2,4.23 -1.05,1.4 -1.81,2.14 -3.06,3.4l-3.49 2.96c-1.16,0.87 -3.47,2.06 -3.47,3.21 0,1.81 4.8,-0.17 6.04,-0.64l3.05 -1.18c2.65,-1.08 4.58,-2.48 6.71,-4.19 0.59,-0.47 0.56,-0.59 1.06,-1.17 4.92,-5.68 1.91,-13.75 -3.64,-15.62 -4.32,-1.45 -11.66,1.09 -11.66,2.54z"/>
  </g>
 </g>
</svg>
