<?xml version="1.0" encoding="UTF-8"?>
<!DOCTYPE svg PUBLIC "-//W3C//DTD SVG 1.1//EN" "http://www.w3.org/Graphics/SVG/1.1/DTD/svg11.dtd">
<!-- Creator: CorelDRAW 2020 (64 Bit) -->
<svg xmlns="http://www.w3.org/2000/svg" xml:space="preserve" width="109.243mm" height="24.4212mm" version="1.1" style="shape-rendering:geometricPrecision; text-rendering:geometricPrecision; image-rendering:optimizeQuality; fill-rule:evenodd; clip-rule:evenodd"
viewBox="0 0 436.53 97.59"
 xmlns:xlink="http://www.w3.org/1999/xlink"
 xmlns:xodm="http://www.corel.com/coreldraw/odm/2003">
 <defs>
  <style type="text/css">
   <![CDATA[
    .fil0 {fill:#FA021C}
    .fil2 {fill:#FCFCFA}
    .fil1 {fill:white}
   ]]>
  </style>
 </defs>
 <g id="Camada_x0020_1">
  <metadata id="CorelCorpID_0Corel-Layer"/>
  <g id="_1709036317136">
   <path class="fil0" d="M55.81 70.13c-0.43,-12.15 -0.09,-28.82 -0.07,-41.68 1.35,0.13 35.35,19.64 36.21,20.9l-36.14 20.78zm-1.67 -69.8c-9.39,0.67 -19.01,0.46 -28.52,1.19 -10.1,0.78 -16.32,2.29 -20.49,8.94 -6.1,9.72 -5.41,39.9 -4.64,53.44 1.25,21.95 3.28,31.3 26.44,32.42 19.35,0.94 38.34,1.51 58.13,1.17 9.44,-0.16 18.82,-0.6 28.14,-1.21 9.98,-0.65 16.18,-2.03 20.76,-8.73 6.04,-8.83 5.7,-40.94 4.78,-53.94 -0.57,-8.06 -0.84,-18.38 -5.25,-24.14 -5.25,-6.85 -11.3,-7.08 -21.3,-8.1 -11.17,-1.14 -47.17,-1.83 -58.05,-1.05z"/>
   <path class="fil1" d="M380.11 63.03c-0.02,6.05 0.9,22.17 -8.56,17.99 -3.87,-1.71 -2.74,-5.75 -2.74,-10.72 0,-3.57 -0.25,-25.48 0.17,-27.1 0.66,-2.56 4.43,-6.87 8.11,-4.48 3.83,2.48 3.04,18.56 3.02,24.31zm-24.58 27.48l11.15 0.09c1.23,-2.58 0.34,-3.84 2.16,-5.52 3.73,6.98 15.42,9.32 20.84,1.58 4.43,-6.32 4.33,-18.52 4.33,-27.48 0,-8.81 0.09,-21.63 -4.47,-27.35 -2.39,-3 -7.47,-4.28 -11.94,-2.99 -6.29,1.82 -7.54,6.1 -8.71,6.97l-0.07 -31.86 -13.29 0.03 -0 86.53z"/>
   <path class="fil1" d="M335.34 83.43l1.16 7.06 10.72 0.07 0.03 -60.9 -13.72 -0.08c-0.18,9.44 -0.02,18.95 -0.03,28.33 -0,4.7 -0.01,9.41 -0,14.11 0,5.14 0.47,8.91 -4.78,9.74 -5.28,0.84 -4.98,-4.63 -4.98,-8.88l-0.02 -43.21 -13.68 -0.09c0.11,15.75 -0.31,31.58 0.04,47.16 0.43,19.33 16.7,16.59 22.42,10.07 1.02,-1.17 1.33,-2.48 2.83,-3.38z"/>
   <path class="fil1" d="M264.68 83.49l1.32 6.95 10.73 0.14 0.03 -60.96 -13.66 -0.04c0.02,3.48 0.71,47.12 -0.5,49.32 -0.68,1.25 -2.76,2.64 -4.44,2.88 -5.09,0.72 -4.91,-4.69 -4.91,-8.9 -0.01,-13.73 0.39,-30.14 -0.03,-43.25l-13.56 -0.07c-0.4,14.94 -0.53,32.29 0.01,47.16 0.28,7.72 2.26,13.62 9.21,14.6 5.31,0.75 9.92,-0.68 13.13,-4.45 0.76,-0.9 1.65,-2.62 2.68,-3.38z"/>
   <path class="fil1" d="M208.53 75.01c-0.87,-6.13 -0.25,-20.58 -0.1,-27.39 0.08,-3.81 0.84,-8.86 3.82,-9.65 4.52,-1.2 5.73,3.5 6.11,7.14 0.76,7.21 0.52,19.9 0.17,27.34 -0.17,3.71 -0.58,8.8 -4.09,9.62 -4.46,1.03 -5.41,-3.64 -5.9,-7.06zm1.77 -46.38c-7.97,1.24 -11.67,4.35 -13.95,11.43 -2.2,6.84 -2,15.45 -1.98,23.41 0.05,17.77 2.9,30.01 22.84,27.85 16.17,-1.75 15.34,-19.34 15.27,-35.12 -0.07,-16.29 -3.64,-30.45 -22.18,-27.57z"/>
   <path class="fil1" d="M168.72 90.53l13.18 0.08c0.88,-4.28 0.17,-19.24 0.18,-24.6 0.01,-6.75 15.44,-53.61 15.57,-59.01l-13.32 0.04c-2.77,12.65 -6.09,26.24 -8.26,38.81l-0.77 2.58 -8.7 -41.3 -13.42 -0.11c0.17,3.49 4.16,15.63 5.21,19.44 1.81,6.58 3.61,13.23 5.38,19.5 1.37,4.84 4.83,15.2 4.83,20.08 0,6.17 -0.74,19.15 0.13,24.51z"/>
   <path class="fil1" d="M413.43 52.34c-0,-5.11 -1.04,-14.52 4.78,-14.68 3.53,-0.1 4.39,2.02 4.82,5.28 0.55,4.1 0.52,9.15 0.45,13.46l-10.04 -0.07 -0.01 -3.98zm22.11 20.24l-11.46 -0.74c-0.1,2.63 -0.22,5.97 -1.35,8.09 -1.05,1.99 -4.37,3.02 -6.72,1.54 -3.36,-2.11 -2.62,-12.1 -2.57,-16.8l22.89 -0.1c0.38,-6.61 0.27,-16.36 -0.77,-22.39 -1.22,-7.01 -3.94,-11.6 -10.72,-13.14 -7.16,-1.62 -15.03,-0.35 -19,3.65 -4.13,4.16 -5.31,10.9 -5.76,18.08 -0.87,13.64 -1.21,33.11 8.47,38.59 6.97,3.95 27.27,4.56 27.47,-13.95l-0.47 -2.84z"/>
   <polygon class="fil1" points="273.38,17.97 287.02,18.09 287.08,90.53 300.3,90.6 300.45,18.09 314.08,18.06 314.14,7.16 273.44,7.02 "/>
   <path class="fil2" d="M91.95 49.35c-0.86,-1.25 -34.86,-20.77 -36.21,-20.9 -0.01,12.85 -0.35,29.53 0.07,41.68l36.14 -20.78z"/>
  </g>
 </g>
</svg>
