<?xml version="1.0" encoding="UTF-8"?>
<!DOCTYPE svg PUBLIC "-//W3C//DTD SVG 1.1//EN" "http://www.w3.org/Graphics/SVG/1.1/DTD/svg11.dtd">
<!-- Creator: CorelDRAW 2020 (64 Bit) -->
<svg xmlns="http://www.w3.org/2000/svg" xml:space="preserve" width="97.8644mm" height="68.7494mm" version="1.1" style="shape-rendering:geometricPrecision; text-rendering:geometricPrecision; image-rendering:optimizeQuality; fill-rule:evenodd; clip-rule:evenodd"
viewBox="0 0 24257.25 17040.63"
 xmlns:xlink="http://www.w3.org/1999/xlink"
 xmlns:xodm="http://www.corel.com/coreldraw/odm/2003">
 <defs>
  <style type="text/css">
   <![CDATA[
    .fil0 {fill:red}
    .fil1 {fill:#FFFEFE}
   ]]>
  </style>
 </defs>
 <g id="Camada_x0020_1">
  <metadata id="CorelCorpID_0Corel-Layer"/>
  <g id="_1624612152432">
   <path class="fil0" d="M9712.72 4873.32l6276.98 3654.73 -6281.76 3627.59 4.78 -7282.33zm1545.3 -4873.32l1586.24 0c574.83,9.37 1149.33,22.83 1720.46,20.5 139.15,-0.57 180.94,22.01 313.6,22.18l652.11 -1.54c121.21,1.49 158.16,22.85 292.48,22.31l629.95 20.6c104.48,5.63 229.52,0.3 336.03,-0.25 133.35,-0.69 189.34,15.59 293.55,21.22 108.57,5.87 227.07,-4.07 336.58,-0.77l609.01 41.54c99.79,8.25 211.11,-6.99 310.63,4.16 173.93,19.53 420.78,36.86 612.35,38.22 379.11,2.68 812.23,60.88 1199.05,102.07 210.02,22.36 393.73,42.93 585.83,64.74 707.76,80.36 1364.85,255.6 1908.2,673.08 837.66,643.61 1131.88,1496.61 1294.8,2608.59 113.08,771.78 168.6,1551.29 235.82,2366.43l43.35 942.98c-0.57,99.91 -5.68,217.13 -0.37,315.19l39.09 1241.24c3.94,67.07 -18.49,200.25 -18.07,311.54 0.37,104.95 0.05,209.92 0.05,314.86l-20.5 965.83c0.57,134.32 -20.82,171.28 -22.31,292.48 -5.23,427.07 -41.54,803.38 -62.29,1238.83 -4.24,88.69 -13.51,69.28 -19.58,148.32 -4.21,54.98 1.59,107.85 -4.36,163.52l-92.58 872.76c-140.04,1006.43 -222.26,1911.49 -872.59,2716.04 -58.1,71.88 -82.86,99.47 -149.19,165.57 -334.99,333.88 -699.7,594.9 -1167.3,763.43 -745.11,268.54 -2017.88,326.64 -2857.87,394.92 -198.34,16.14 -428.36,2.01 -619.62,30.96l-1855.9 74.81c-141.28,-0.82 -190.48,20.57 -313.67,22.11 -285.94,3.52 -1420.45,7.56 -1583.64,32.27 -296.05,44.81 -957.46,10.44 -1292.42,8.72 -209.64,-1.09 -395.15,21.12 -629.43,21.12l-9.84 0 -9.84 0 -9.84 0 -9.84 0 -9.82 0 -9.84 0 -9.84 0 -9.84 0 -9.84 0 -9.84 0 -9.84 0 -9.84 0 -9.84 0 -9.82 0 -9.84 0 -9.84 0 -9.84 0 -9.84 0 -9.84 0 -9.84 0 -9.84 0 -9.84 0 -9.82 0 -9.84 0 -9.84 0 -9.84 0 -9.84 0 -9.84 0 -9.84 0 -9.84 0 -9.82 0 -9.84 0 -9.84 0 -9.84 0 -9.84 0 -9.84 0 -9.84 0 -9.84 0 -9.84 0 -9.82 0 -9.84 0 -9.84 0 -9.84 0 -9.84 0 -9.84 0 -9.84 0 -9.82 0 -9.84 0 -9.84 0 -9.84 0 -9.84 0 -9.84 0 -9.84 0 -9.82 0 -9.84 0 -9.84 0 -9.84 0 -9.84 0 -9.84 0 -9.84 0 -9.82 0 -9.84 0 -9.84 0 -9.84 0 -10.16 0 -10.16 0 -10.16 0 -10.16 0 -10.19 0 -10.16 0 -10.16 0 -10.16 0 -10.16 0 -10.16 0 -10.16 0 -10.16 0 -10.16 0 -10.19 0 -10.16 0 -10.16 0 -10.16 0 -10.16 0 -10.16 0 -10.16 0 -10.16 0 -10.16 0 -10.19 0 -10.16 0 -10.16 0 -10.16 0 -10.16 0 -10.16 0 -10.16 0 -10.16 0 -10.16 0 -10.16 0 -10.19 0 -10.16 0 -10.16 0 -10.16 0 -10.16 0 -10.16 0 -10.16 0 -10.16 0 -10.16 0 -10.19 0 -10.16 0 -10.16 0 -10.16 0 -10.16 0 -10.16 0 -10.16 0 -10.16 0 -10.16 0 -10.19 0 -10.16 0 -10.16 0 -10.16 0 -10.16 0 -10.16 0 -10.16 0 -10.16 0 -10.16 0 -10.19 0 -10.16 0 -10.16 0 -10.16 0 -10.16 0c-238.62,0.02 -395.99,-21.12 -629.58,-20.99l-1259.06 -21.07c-202.41,-10.93 -444.5,-0.84 -650.8,0.22 -595.55,3.07 -1246.96,-66.6 -1846.9,-62.81 -141.33,0.89 -190.41,-20.6 -313.67,-22.11l-631.24 -19.31c-121.97,-1.44 -157.62,-23.35 -292.75,-22.04 -413.51,4.04 -1994.97,-155.36 -2354.28,-206.03 -712.02,-100.41 -1324.05,-266.7 -1870.77,-710.48 -1178.43,-956.51 -1194.84,-2354.11 -1372.58,-3748.01 -49.6,-389.1 -44.02,-812.7 -86.73,-1193.42l-45.76 -919.61c-0.67,-485.74 -38.1,-1010.08 -41.24,-1502.66l0 -124.21c3.22,-497.37 44.49,-1031.1 41.69,-1522.02 -0.77,-134.86 18.64,-181.26 21.96,-292.83 33.73,-1131.73 116.08,-2383.23 340.25,-3500.19 31.33,-156.16 72.25,-363.72 118.01,-511.57 109.23,-352.94 224.1,-597.46 402.53,-877.59 140.99,-221.34 404.15,-506.98 610.25,-669.91 782.54,-618.62 1473.02,-657.98 2440.51,-791.31 304.97,-42.04 583.1,-42.48 890.33,-75.03l1808.11 -101.63c488.42,-26.37 1039.4,-63.35 1531.86,-63.06 111.66,0.07 225.29,2.21 336.6,0.84 121.23,-1.51 158.19,-22.88 292.48,-22.31 206.47,0.84 425.68,7.31 630.77,1.16 114.19,-3.42 173.53,-22.53 313.95,-21.81 310.3,1.59 636.64,16.88 944.62,0.25 177.74,-9.59 355.81,-16.43 534.1,-21.09z"/>
   <polygon class="fil1" points="9707.94,12155.64 15989.71,8528.05 9712.72,4873.32 "/>
  </g>
 </g>
</svg>
